<?xml version="1.0" encoding="UTF-8"?>
<svg id="Layer_2" data-name="Layer 2" xmlns="http://www.w3.org/2000/svg" viewBox="0 0 213.14 274.59">
  <defs>
    <style>
      .cls-1 {
        fill: #fff;
      }
    </style>
  </defs>
  <g id="Layer_1-2" data-name="Layer 1">
    <path class="cls-1" d="M128.24,6.14c-.57-1.76-1.65-3.27-3.13-4.37-1.49-1.12-3.27-1.73-5.13-1.77-1.85-.05-3.67.5-5.21,1.56-1.53,1.06-2.68,2.54-3.3,4.24l-39.23,104.75,21.77-.23,25.41-66.25,20.12,67.01h23.73L128.24,6.14Z"/>
    <path class="cls-1" d="M63.6,140.2l-43.32,104.66c-3.76,9.09-.93,19.61,6.89,25.57l5.45,4.16,52.76-134.4h-21.79Z"/>
    <path class="cls-1" d="M179.44,164.66l-10.95-31.19-4.88,1.71c-1.67.59-3.06,1.1-4.47,1.62-2.03.75-4.12,1.53-7.26,2.58l-5.17,1.74,23.32,58.94,6.72-10.81c4.6-7.41,5.59-16.37,2.7-24.6Z"/>
    <path class="cls-1" d="M186.26,38.25v5.16c0,1.42-.7,112.69-.9,143.62-.06,8.02-1.88,19.65-4.82,25.22-6.94,13.11-17.16,20.97-32.15,24.72-15.84,3.97-29.98,1.93-39.82-5.75-9.34-7.29-14.27-19.48-14.27-35.27,0-22.02,14.76-39.81,41.54-50.09,12.27-4.64,31.57-11.72,34.46-12.36l2.53-.28,6.63-11.99c1.18-2.13,1.15-4.65-.08-6.75-1.22-2.1-3.41-3.37-5.84-3.4l-163.35-1.64h-.16c-1.89.04-3.74.61-5.34,1.64-1.59,1.03-2.86,2.47-3.68,4.18-.82,1.71-1.15,3.6-.96,5.48.19,1.88.9,3.67,2.04,5.18l39.75,49.5,5.83-13.15c2.18-4.91,1.3-10.69-2.24-14.73l-15.15-17.32h78.41c-9.57,8.37-16.72,16.82-24.06,28.09-5.87,8.87-9.67,18.7-11.31,29.24-.52,3.52-.78,7.12-.77,10.66,0,45.86,30.13,67.46,59.99,68.54.81.03,1.62.04,2.44.04,33.52,0,68.43-24.72,71.91-73.18V38.25s-20.63,0-20.63,0Z"/>
    <polygon class="cls-1" points="213.14 17.37 208.19 12.45 208.21 5.47 201.23 5.49 196.3 .53 191.38 5.49 184.4 5.47 184.42 12.45 179.47 17.37 184.42 22.29 184.4 29.28 191.38 29.25 196.3 34.21 201.23 29.25 208.21 29.28 208.19 22.29 213.14 17.37"/>
  </g>
</svg>